<svg width="117" height="34" viewBox="0 0 117 34" fill="none" xmlns="http://www.w3.org/2000/svg">
<path d="M23.488 24.256C23.488 20.896 21.808 17.824 19.264 16C21.136 14.32 22.336 11.824 22.336 9.184C22.336 4.528 18.688 0.735999 14.08 0.399998H13.792H2.512H2.464C1.312 0.447997 0.4 1.312 0.4 2.416V31.792V31.84V31.888C0.4 33.088 1.36 34 2.512 34H13.792H13.888C19.216 33.904 23.488 29.584 23.488 24.256ZM18.256 9.184C18.256 11.776 16.144 14.176 13.504 14.176H4.576V4.48H13.504C16.144 4.48 18.256 6.592 18.256 9.184ZM13.696 29.872H4.576V18.256H13.696C16.864 18.256 19.312 21.088 19.312 24.256C19.312 27.328 16.864 29.872 13.696 29.872Z" fill="#0D005A"/>
<path d="M42.1705 34C43.8985 34 44.5225 32.416 44.8585 31.6L52.2505 7.6V31.84C52.2505 33.088 53.2105 34 54.3625 34C55.5145 34 56.4265 33.088 56.4265 31.84V2.56C56.4265 1.312 55.4665 0.399998 54.2665 0.399998H51.9145C51.0985 0.399998 50.3305 0.879997 50.0425 1.696L42.1705 25.696L34.3465 1.696C34.0585 0.879997 33.2905 0.399998 32.4745 0.399998H30.1225C28.9225 0.399998 27.9625 1.312 27.9625 2.56V31.84C27.9625 33.088 28.8745 34 30.0265 34C31.1785 34 32.1385 33.088 32.1385 31.84V7.6L39.5305 31.6C39.8665 32.416 40.4905 34 42.1705 34ZM88.3724 31.024L77.2844 1.552C76.9004 0.831998 76.0844 0.399998 75.2684 0.399998C74.5004 0.399998 73.6844 0.831998 73.3004 1.552L62.1644 31.024C61.7324 32.176 62.5004 33.424 63.3164 33.76C64.5164 34.144 65.6684 33.424 66.1004 32.56L69.1244 24.4H81.3644L84.3884 32.56C84.7724 33.424 85.9724 34.144 87.1724 33.76C87.9404 33.424 88.7084 32.176 88.3724 31.024ZM70.7084 20.176L75.2684 7.984L79.7804 20.176H70.7084ZM106.704 0.399998H95.1839C93.9359 0.399998 93.0719 1.264 93.0719 2.512V31.792C93.0719 33.04 93.9839 34 95.2319 34C96.4319 34 97.3439 33.04 97.3439 31.792V19.984H106.704C111.792 19.984 116.448 15.712 116.448 10.192C116.448 4.672 111.792 0.399998 106.704 0.399998ZM106.704 15.712H97.3439V4.672H106.704C109.68 4.672 112.224 7.216 112.224 10.192C112.224 13.168 109.68 15.712 106.704 15.712Z" fill="black"/>
</svg>
